<mxfile host="65bd71144e">
    <diagram id="YKqExx6K8RWTtQI_Iv2n" name="Page-1">
        <mxGraphModel dx="1129" dy="674" grid="1" gridSize="10" guides="1" tooltips="1" connect="1" arrows="1" fold="1" page="1" pageScale="1" pageWidth="50000" pageHeight="50000" math="0" shadow="0">
            <root>
                <mxCell id="0"/>
                <mxCell id="1" parent="0"/>
                <mxCell id="2" value="&lt;font style=&quot;font-size: 18px;&quot;&gt;MAIN&lt;/font&gt;" style="rounded=0;whiteSpace=wrap;html=1;" vertex="1" parent="1">
                    <mxGeometry x="440" y="80" width="200" height="80" as="geometry"/>
                </mxCell>
                <mxCell id="3" value="&lt;font style=&quot;font-size: 18px;&quot;&gt;SCRAPPER&lt;/font&gt;" style="rounded=0;whiteSpace=wrap;html=1;" vertex="1" parent="1">
                    <mxGeometry x="280" y="280" width="520" height="80" as="geometry"/>
                </mxCell>
                <mxCell id="5" value="DAILY&lt;br&gt;DATA" style="rounded=0;whiteSpace=wrap;html=1;fontSize=18;" vertex="1" parent="1">
                    <mxGeometry x="280" y="480" width="120" height="80" as="geometry"/>
                </mxCell>
                <mxCell id="6" value="DAILY&lt;br&gt;DATA" style="endArrow=classic;html=1;exitX=0.664;exitY=0.002;exitDx=0;exitDy=0;entryX=0.155;entryY=1.019;entryDx=0;entryDy=0;entryPerimeter=0;exitPerimeter=0;" edge="1" parent="1" source="5" target="3">
                    <mxGeometry x="0.0142" width="50" height="50" relative="1" as="geometry">
                        <mxPoint x="590" y="390" as="sourcePoint"/>
                        <mxPoint x="600" y="360" as="targetPoint"/>
                        <mxPoint as="offset"/>
                    </mxGeometry>
                </mxCell>
                <mxCell id="7" value="URL" style="endArrow=classic;html=1;entryX=0.332;entryY=0;entryDx=0;entryDy=0;exitX=0.462;exitY=1.009;exitDx=0;exitDy=0;exitPerimeter=0;entryPerimeter=0;" edge="1" parent="1" source="3" target="8">
                    <mxGeometry x="-0.006" width="50" height="50" relative="1" as="geometry">
                        <mxPoint x="680" y="360" as="sourcePoint"/>
                        <mxPoint x="900" y="400" as="targetPoint"/>
                        <Array as="points"/>
                        <mxPoint as="offset"/>
                    </mxGeometry>
                </mxCell>
                <mxCell id="8" value="HOURLY&lt;br&gt;DATA" style="rounded=0;whiteSpace=wrap;html=1;fontSize=18;" vertex="1" parent="1">
                    <mxGeometry x="480" y="480" width="120" height="80" as="geometry"/>
                </mxCell>
                <mxCell id="9" value="HOURLY&lt;br&gt;DATA" style="endArrow=classic;html=1;exitX=0.664;exitY=0.006;exitDx=0;exitDy=0;entryX=0.538;entryY=1.031;entryDx=0;entryDy=0;entryPerimeter=0;exitPerimeter=0;" edge="1" parent="1" source="8" target="3">
                    <mxGeometry x="0.0251" width="50" height="50" relative="1" as="geometry">
                        <mxPoint x="890" y="390" as="sourcePoint"/>
                        <mxPoint x="940" y="340" as="targetPoint"/>
                        <mxPoint as="offset"/>
                    </mxGeometry>
                </mxCell>
                <mxCell id="10" value="COMPLETE&lt;br&gt;DATA" style="endArrow=classic;html=1;entryX=0;entryY=0.5;entryDx=0;entryDy=0;exitX=1;exitY=0.75;exitDx=0;exitDy=0;" edge="1" parent="1" target="13" source="3">
                    <mxGeometry width="50" height="50" relative="1" as="geometry">
                        <mxPoint x="770" y="320" as="sourcePoint"/>
                        <mxPoint x="930" y="320" as="targetPoint"/>
                    </mxGeometry>
                </mxCell>
                <mxCell id="11" value="LOCATION &lt;br&gt;INPUT" style="endArrow=classic;html=1;exitX=0.199;exitY=0.989;exitDx=0;exitDy=0;entryX=0.384;entryY=-0.004;entryDx=0;entryDy=0;entryPerimeter=0;exitPerimeter=0;" edge="1" parent="1" source="2" target="3">
                    <mxGeometry x="-0.3333" width="50" height="50" relative="1" as="geometry">
                        <mxPoint x="624" y="200" as="sourcePoint"/>
                        <mxPoint x="630" y="280" as="targetPoint"/>
                        <mxPoint as="offset"/>
                    </mxGeometry>
                </mxCell>
                <mxCell id="12" value="TERMINAL&lt;br&gt;OUTPUT" style="endArrow=classic;html=1;entryX=0.793;entryY=1.029;entryDx=0;entryDy=0;exitX=0.616;exitY=-0.004;exitDx=0;exitDy=0;exitPerimeter=0;entryPerimeter=0;" edge="1" parent="1" source="3" target="2">
                    <mxGeometry x="-0.2729" y="5" width="50" height="50" relative="1" as="geometry">
                        <mxPoint x="690" y="270" as="sourcePoint"/>
                        <mxPoint x="680" y="190" as="targetPoint"/>
                        <mxPoint as="offset"/>
                    </mxGeometry>
                </mxCell>
                <mxCell id="13" value="JSON&lt;br&gt;OUTPUT" style="rounded=0;whiteSpace=wrap;html=1;" vertex="1" parent="1">
                    <mxGeometry x="920" y="360" width="120" height="80" as="geometry"/>
                </mxCell>
                <mxCell id="14" value="" style="dashed=0;outlineConnect=0;html=1;align=center;labelPosition=center;verticalLabelPosition=bottom;verticalAlign=top;shape=mxgraph.weblogos.json" vertex="1" parent="1">
                    <mxGeometry x="1160" y="367.1" width="51" height="65.8" as="geometry"/>
                </mxCell>
                <mxCell id="15" value="JSON&lt;br&gt;FILE" style="endArrow=classic;html=1;exitX=1;exitY=0.5;exitDx=0;exitDy=0;" edge="1" parent="1" source="13" target="14">
                    <mxGeometry width="50" height="50" relative="1" as="geometry">
                        <mxPoint x="1000" y="360" as="sourcePoint"/>
                        <mxPoint x="950" y="410" as="targetPoint"/>
                        <Array as="points"/>
                    </mxGeometry>
                </mxCell>
                <mxCell id="16" value="COMPLETE&amp;nbsp;&lt;br&gt;DATA" style="edgeStyle=none;html=1;exitX=1;exitY=0.5;exitDx=0;exitDy=0;entryX=0;entryY=0.5;entryDx=0;entryDy=0;" edge="1" parent="1" source="3" target="18">
                    <mxGeometry relative="1" as="geometry"/>
                </mxCell>
                <mxCell id="17" value="EXCEL&amp;nbsp;&lt;br&gt;FILE" style="edgeStyle=none;html=1;exitX=1;exitY=0.5;exitDx=0;exitDy=0;" edge="1" parent="1" source="18">
                    <mxGeometry relative="1" as="geometry">
                        <mxPoint x="1160" y="240" as="targetPoint"/>
                    </mxGeometry>
                </mxCell>
                <mxCell id="18" value="EXCEL&lt;br&gt;OUTPUT" style="rounded=0;whiteSpace=wrap;html=1;" vertex="1" parent="1">
                    <mxGeometry x="920" y="200" width="120" height="80" as="geometry"/>
                </mxCell>
                <mxCell id="19" value="" style="sketch=0;pointerEvents=1;shadow=0;dashed=0;html=1;strokeColor=none;fillColor=#505050;labelPosition=center;verticalLabelPosition=bottom;verticalAlign=top;outlineConnect=0;align=center;shape=mxgraph.office.services.excel_services;" vertex="1" parent="1">
                    <mxGeometry x="1160" y="215.5" width="60" height="49" as="geometry"/>
                </mxCell>
                <mxCell id="24" value="URL" style="endArrow=classic;html=1;entryX=0.25;entryY=0;entryDx=0;entryDy=0;" edge="1" parent="1">
                    <mxGeometry width="50" height="50" relative="1" as="geometry">
                        <mxPoint x="320" y="361" as="sourcePoint"/>
                        <mxPoint x="320" y="479.9999999999999" as="targetPoint"/>
                        <Array as="points"/>
                    </mxGeometry>
                </mxCell>
                <mxCell id="26" value="HISTORICAL&lt;br&gt;DATA" style="rounded=0;whiteSpace=wrap;html=1;fontSize=18;" vertex="1" parent="1">
                    <mxGeometry x="680" y="480" width="120" height="80" as="geometry"/>
                </mxCell>
                <mxCell id="29" value="HISTORICAL&lt;br&gt;DATA" style="endArrow=classic;html=1;entryX=0.846;entryY=1.041;entryDx=0;entryDy=0;entryPerimeter=0;exitX=0.665;exitY=0;exitDx=0;exitDy=0;exitPerimeter=0;" edge="1" parent="1" source="26">
                    <mxGeometry x="-0.3333" width="50" height="50" relative="1" as="geometry">
                        <mxPoint x="759.83" y="476.72" as="sourcePoint"/>
                        <mxPoint x="759.7500000000001" y="360" as="targetPoint"/>
                        <mxPoint as="offset"/>
                    </mxGeometry>
                </mxCell>
                <mxCell id="30" value="LOCATION" style="endArrow=classic;html=1;entryX=0.328;entryY=0.002;entryDx=0;entryDy=0;exitX=0.25;exitY=0;exitDx=0;exitDy=0;entryPerimeter=0;" edge="1" parent="1" target="26">
                    <mxGeometry x="-0.1678" width="50" height="50" relative="1" as="geometry">
                        <mxPoint x="719.9200000000001" y="360" as="sourcePoint"/>
                        <mxPoint x="720" y="476.72" as="targetPoint"/>
                        <mxPoint as="offset"/>
                    </mxGeometry>
                </mxCell>
            </root>
        </mxGraphModel>
    </diagram>
</mxfile>